<?xml version="1.0" encoding="iso-8859-1"?>
<!-- Generator: Adobe Illustrator 16.0.0, SVG Export Plug-In . SVG Version: 6.00 Build 0)  -->
<!DOCTYPE svg PUBLIC "-//W3C//DTD SVG 1.1//EN" "http://www.w3.org/Graphics/SVG/1.1/DTD/svg11.dtd">
<svg version="1.1" id="Capa_1" xmlns="http://www.w3.org/2000/svg" xmlns:xlink="http://www.w3.org/1999/xlink" x="0px" y="0px"
	 width="800.379px" height="800.379px" viewBox="0 0 800.379 800.379" style="enable-background:new 0 0 800.379 800.379;"
	 xml:space="preserve">
<g>
	<polygon points="430.34,410.768 400.189,380.617 370.038,410.768 379.615,420.348 379.615,449.152 420.762,449.152 
		420.762,420.348 	"/>
	<path d="M533.85,219.329c0-75.132-60.906-136.034-136.036-136.034c-75.13,0-136.032,60.902-136.032,136.034
		c0,75.126,60.902,136.03,136.032,136.03C472.943,355.359,533.85,294.455,533.85,219.329z"/>
	<path d="M718.693,685.441c0.328-0.089,0.652-0.187,0.977-0.279c0.506-0.144,1.01-0.28,1.51-0.438
		c0.354-0.109,0.707-0.236,1.062-0.356c0.49-0.167,0.982-0.327,1.471-0.505c0.365-0.139,0.729-0.286,1.094-0.434
		c0.467-0.181,0.936-0.361,1.395-0.554c0.371-0.162,0.742-0.34,1.115-0.505c0.441-0.2,0.889-0.397,1.328-0.609
		c0.363-0.177,0.727-0.37,1.09-0.56c0.438-0.225,0.877-0.439,1.309-0.681c0.342-0.185,0.68-0.39,1.018-0.582
		c0.447-0.256,0.893-0.512,1.332-0.777c0.311-0.193,0.617-0.398,0.926-0.596c0.459-0.295,0.92-0.59,1.371-0.896
		c0.283-0.198,0.562-0.402,0.842-0.599c0.469-0.335,0.932-0.664,1.389-1.017c0.266-0.2,0.529-0.413,0.797-0.62
		c0.453-0.358,0.902-0.725,1.344-1.095c0.104-0.087,0.215-0.169,0.322-0.259c0.172-0.15,0.332-0.304,0.502-0.453
		c0.4-0.347,0.797-0.704,1.184-1.062c0.312-0.291,0.623-0.586,0.93-0.886c0.316-0.307,0.635-0.622,0.941-0.939
		c0.355-0.362,0.703-0.72,1.045-1.089c0.242-0.261,0.482-0.524,0.717-0.791c0.385-0.43,0.76-0.858,1.125-1.299
		c0.186-0.218,0.367-0.438,0.547-0.661c0.395-0.484,0.781-0.973,1.154-1.468c0.148-0.195,0.291-0.394,0.439-0.591
		c0.383-0.522,0.76-1.046,1.123-1.581c0.137-0.196,0.27-0.401,0.404-0.603c0.352-0.535,0.697-1.066,1.029-1.604
		c0.146-0.239,0.287-0.479,0.432-0.725c0.301-0.503,0.596-1.011,0.881-1.522c0.172-0.312,0.336-0.633,0.504-0.95
		c0.232-0.444,0.467-0.891,0.688-1.344c0.201-0.413,0.396-0.824,0.584-1.247c0.17-0.36,0.342-0.727,0.498-1.093
		c0.225-0.512,0.434-1.031,0.641-1.55c0.111-0.284,0.227-0.562,0.332-0.842c0.229-0.6,0.438-1.2,0.645-1.811
		c0.072-0.218,0.15-0.429,0.221-0.646c0.211-0.651,0.408-1.311,0.6-1.975c0.051-0.183,0.104-0.361,0.152-0.543
		c0.184-0.673,0.352-1.351,0.51-2.03c0.043-0.186,0.088-0.373,0.129-0.562c0.146-0.653,0.275-1.312,0.398-1.974
		c0.041-0.233,0.084-0.465,0.125-0.697c0.104-0.609,0.193-1.223,0.277-1.837c0.041-0.304,0.078-0.606,0.117-0.908
		c0.062-0.547,0.119-1.094,0.168-1.645c0.035-0.391,0.062-0.783,0.092-1.178c0.031-0.473,0.059-0.947,0.078-1.424
		c0.02-0.479,0.029-0.952,0.039-1.429c0.004-0.259,0.018-0.516,0.018-0.774c0-0.161-0.01-0.318-0.01-0.478
		c-0.004-0.519-0.02-1.033-0.039-1.549c-0.012-0.397-0.025-0.796-0.049-1.188c-0.027-0.504-0.068-1.012-0.113-1.516
		c-0.033-0.409-0.066-0.818-0.107-1.224c-0.051-0.469-0.115-0.938-0.178-1.403c-0.059-0.438-0.111-0.874-0.18-1.304
		c-0.064-0.429-0.148-0.851-0.229-1.274c-0.084-0.467-0.162-0.937-0.262-1.4c-0.08-0.385-0.174-0.767-0.264-1.152
		c-0.115-0.491-0.223-0.987-0.348-1.472c-0.098-0.365-0.211-0.73-0.312-1.097c-0.141-0.496-0.275-0.991-0.43-1.48
		c-0.115-0.372-0.25-0.738-0.375-1.107c-0.158-0.478-0.312-0.952-0.488-1.425c-0.145-0.386-0.301-0.768-0.455-1.156
		c-0.174-0.44-0.344-0.889-0.531-1.329c-0.168-0.395-0.354-0.788-0.531-1.182c-0.193-0.421-0.377-0.846-0.576-1.259
		c-0.191-0.39-0.396-0.775-0.594-1.164c-0.215-0.409-0.42-0.827-0.645-1.231c-0.201-0.366-0.418-0.728-0.627-1.094
		c-0.242-0.42-0.48-0.838-0.73-1.256c-0.209-0.333-0.43-0.66-0.643-0.991c-0.279-0.439-0.557-0.873-0.85-1.298
		c-0.211-0.312-0.432-0.609-0.646-0.916c-0.314-0.44-0.631-0.878-0.957-1.312c-0.223-0.291-0.455-0.578-0.688-0.869
		c-0.336-0.425-0.674-0.85-1.021-1.268c-0.098-0.113-0.188-0.235-0.287-0.349L571.049,391.151
		c-10.898-12.761-26.379-19.272-41.943-19.234v76.173h23.629c15.488,0,28.092,12.604,28.092,28.09v119.823
		c15.129,9.457,25.199,26.254,25.199,45.41c0,18.257-9.145,34.367-23.096,44.026h-29.521c8.674-2.106,15.123-9.905,15.123-19.225
		V480.9c0-10.939-8.869-19.808-19.807-19.808H251.654c-10.938,0-19.805,8.867-19.805,19.808v185.315
		c0,9.318,6.447,17.117,15.12,19.225H217.45c-13.952-9.659-23.098-25.771-23.098-44.026c0-19.156,10.071-35.953,25.2-45.409V476.181
		c0-15.485,12.6-28.09,28.089-28.09h23.631v-76.259h-2.374v0.111c-14.754,0.599-29.226,7.097-39.569,19.208L53.893,596.612
		c-0.097,0.112-0.187,0.234-0.283,0.349c-0.348,0.418-0.688,0.843-1.027,1.268c-0.228,0.291-0.46,0.578-0.683,0.869
		c-0.327,0.434-0.643,0.87-0.956,1.312c-0.219,0.307-0.439,0.604-0.649,0.916c-0.292,0.425-0.571,0.857-0.85,1.298
		c-0.214,0.331-0.433,0.658-0.639,0.991c-0.252,0.418-0.492,0.836-0.734,1.256c-0.21,0.366-0.427,0.728-0.627,1.094
		c-0.222,0.404-0.429,0.822-0.641,1.231c-0.199,0.389-0.406,0.774-0.597,1.164c-0.198,0.413-0.383,0.838-0.574,1.259
		c-0.181,0.394-0.366,0.787-0.535,1.182c-0.187,0.44-0.354,0.889-0.531,1.329c-0.151,0.39-0.312,0.771-0.455,1.156
		c-0.173,0.473-0.328,0.947-0.489,1.425c-0.125,0.369-0.256,0.735-0.375,1.107c-0.153,0.489-0.289,0.984-0.429,1.48
		c-0.104,0.365-0.216,0.731-0.311,1.097c-0.126,0.483-0.236,0.979-0.349,1.472c-0.09,0.387-0.187,0.769-0.267,1.152
		c-0.097,0.465-0.176,0.935-0.26,1.4c-0.079,0.425-0.161,0.847-0.228,1.274c-0.065,0.43-0.122,0.865-0.177,1.304
		c-0.062,0.467-0.128,0.936-0.177,1.403c-0.045,0.404-0.075,0.813-0.11,1.224c-0.041,0.504-0.084,1.012-0.114,1.516
		c-0.021,0.393-0.033,0.79-0.047,1.188c-0.018,0.516-0.036,1.03-0.038,1.549c-0.002,0.158-0.011,0.314-0.011,0.478
		c0,0.26,0.016,0.517,0.019,0.774c0.008,0.477,0.02,0.948,0.038,1.429c0.02,0.477,0.047,0.951,0.079,1.424
		c0.025,0.395,0.057,0.787,0.09,1.178c0.049,0.551,0.106,1.098,0.169,1.645c0.038,0.302,0.077,0.604,0.117,0.908
		c0.084,0.614,0.177,1.228,0.279,1.837c0.039,0.232,0.083,0.464,0.125,0.697c0.122,0.66,0.251,1.32,0.397,1.974
		c0.041,0.189,0.089,0.378,0.13,0.562c0.158,0.681,0.327,1.357,0.509,2.03c0.05,0.182,0.104,0.36,0.155,0.543
		c0.187,0.664,0.384,1.322,0.598,1.975c0.071,0.218,0.146,0.429,0.216,0.646c0.209,0.609,0.419,1.211,0.647,1.811
		c0.106,0.278,0.221,0.558,0.331,0.842c0.208,0.519,0.417,1.038,0.639,1.55c0.161,0.366,0.33,0.731,0.498,1.093
		c0.193,0.423,0.384,0.834,0.586,1.247c0.221,0.453,0.455,0.898,0.689,1.344c0.167,0.317,0.333,0.638,0.505,0.95
		c0.281,0.513,0.578,1.021,0.877,1.522c0.144,0.244,0.286,0.484,0.434,0.725c0.33,0.538,0.678,1.069,1.03,1.604
		c0.133,0.2,0.266,0.405,0.401,0.603c0.365,0.535,0.743,1.059,1.127,1.581c0.146,0.197,0.29,0.396,0.437,0.591
		c0.374,0.495,0.761,0.982,1.157,1.468c0.181,0.225,0.36,0.443,0.543,0.661c0.368,0.439,0.743,0.869,1.125,1.299
		c0.238,0.267,0.477,0.53,0.718,0.791c0.342,0.369,0.688,0.727,1.042,1.089c0.311,0.317,0.628,0.634,0.945,0.939
		c0.307,0.3,0.613,0.595,0.929,0.886c0.389,0.357,0.785,0.716,1.186,1.062c0.171,0.149,0.33,0.303,0.501,0.453
		c0.109,0.09,0.217,0.172,0.323,0.259c0.441,0.37,0.89,0.735,1.346,1.095c0.262,0.207,0.527,0.42,0.794,0.62
		c0.455,0.353,0.921,0.682,1.387,1.017c0.281,0.195,0.559,0.399,0.845,0.599c0.45,0.307,0.908,0.602,1.369,0.896
		c0.307,0.196,0.614,0.401,0.926,0.596c0.437,0.267,0.885,0.521,1.33,0.777c0.34,0.192,0.677,0.397,1.019,0.582
		c0.432,0.24,0.871,0.456,1.309,0.681c0.362,0.188,0.723,0.383,1.09,0.56c0.437,0.212,0.883,0.409,1.328,0.609
		c0.372,0.165,0.742,0.343,1.116,0.505c0.458,0.19,0.926,0.373,1.391,0.554c0.366,0.146,0.73,0.295,1.096,0.434
		c0.486,0.178,0.979,0.338,1.471,0.505c0.354,0.12,0.706,0.247,1.064,0.356c0.496,0.156,1,0.294,1.506,0.438
		c0.325,0.094,0.65,0.19,0.978,0.279H0v31.639h800.379v-31.639h-81.686V685.441z"/>
</g>
<g>
</g>
<g>
</g>
<g>
</g>
<g>
</g>
<g>
</g>
<g>
</g>
<g>
</g>
<g>
</g>
<g>
</g>
<g>
</g>
<g>
</g>
<g>
</g>
<g>
</g>
<g>
</g>
<g>
</g>
</svg>
