<?xml version="1.0" encoding="utf-8"?>
<!-- Svg Vector Icons : http://www.onlinewebfonts.com/icon -->
<!DOCTYPE svg PUBLIC "-//W3C//DTD SVG 1.1//EN" "http://www.w3.org/Graphics/SVG/1.1/DTD/svg11.dtd">
<svg version="1.1" xmlns="http://www.w3.org/2000/svg" xmlns:xlink="http://www.w3.org/1999/xlink" x="0px" y="0px" viewBox="0 0 1000 1000" enable-background="new 0 0 1000 1000" xml:space="preserve">
<metadata> Svg Vector Icons : http://www.onlinewebfonts.com/icon </metadata>
<g><path d="M474.5,2.7h28v93.8h-28V2.7z"/><path d="M836.9,691c-43.2,0-82.2,18-110.1,46.7L314.3,531.5c1.3-7.9,1.9-16,1.9-24.2c0-8.2-0.7-16.4-1.9-24.2l412.5-206.2c27.8,28.8,66.9,46.7,110.1,46.7c84.6,0,153.1-68.6,153.1-153.1c0-84.6-68.6-153.1-153.1-153.1c-84.6,0-153.1,68.6-153.1,153.1c0,8.2,0.7,16.4,1.9,24.2L273.2,400.9c-27.8-28.8-66.9-46.7-110.1-46.7C78.6,354.2,10,422.8,10,507.3c0,84.6,68.6,153.1,153.1,153.1c43.2,0,82.2-17.9,110.1-46.7l412.5,206.2c-1.3,7.9-1.9,16-1.9,24.2c0,84.6,68.6,153.1,153.1,153.1c84.6,0,153.1-68.6,153.1-153.1C990,759.6,921.4,691,836.9,691L836.9,691z"/></g>
</svg>