<?xml version="1.0" encoding="utf-8"?>
<!-- Svg Vector Icons : http://www.onlinewebfonts.com/icon -->
<!DOCTYPE svg PUBLIC "-//W3C//DTD SVG 1.1//EN" "http://www.w3.org/Graphics/SVG/1.1/DTD/svg11.dtd">
<svg version="1.1" xmlns="http://www.w3.org/2000/svg" xmlns:xlink="http://www.w3.org/1999/xlink" x="0px" y="0px" viewBox="0 0 1000 1000" enable-background="new 0 0 1000 1000" xml:space="preserve">
<metadata> Svg Vector Icons : http://www.onlinewebfonts.com/icon </metadata>
<g><g><g><path d="M715.3,694.3L715.3,694.3L715.3,694.3c-0.2-2-0.7-4-1.4-5.9c-4.7-18.2-15.6-51.5-20.6-66.3c-0.5-2.6-1.4-5.1-2.5-7.5c0,0-8-12-14-15.6c0,0-3-1.6-3.4-1.7c-11.8-5.6-48.5-20.3-48.5-20.3l0,0c-18.3-8-37.3-14.7-56.6-21.6l0,0l0,0l0,0l0,0c-3.5,14.3-36.3,109.8-41.5,123.1l-4.1-88.7c1.4-2.1,2.4-4.5,3.5-6.7l13.7-27c-9.6,8-24.1,13.1-40.2,13.1c-15.8,0-29.9-4.9-39.5-12.6l13.3,26.4c1.1,2.2,2.1,4.7,3.5,6.7l-4.1,88.7c-5.2-13.2-38-108.7-41.5-123.1l0,0l0,0l0,0l0,0c-19.3,6.9-38.3,13.7-56.6,21.6l0,0c0,0-36.6,14.7-48.5,20.3c-0.4,0.2-3,1.5-3.4,1.7c0,0-11,9.1-14,15.4c0,0-2,4.9-2.5,7.5c-4.9,14.8-15.7,48-20.6,66.3c-0.6,1.9-1.1,3.9-1.4,5.9l0,0l0,0c-0.2,1.7-0.4,3.6-0.4,5.4c0,19.6,15.8,35.4,35.4,35.4h33.8c48.3,0,96.6,0,144.9,0c0.6,0,1.2,0,1.9,0l0,0c0.6,0,1.2,0,1.9,0c48.3,0,96.6,0,144.9,0h33.8c19.6,0,35.4-15.8,35.4-35.4C715.6,697.9,715.5,696.1,715.3,694.3z"/><path d="M592.1,391.5c0-6.2,1.2-28.9,1.2-34c0-50.5-41-91.5-91.5-91.5l0,0l0,0h-0.1h-0.1l0,0l0,0c-0.6,0-1.1,0-1.7,0s-1.1,0-1.7,0l0,0l0,0h-0.1h-0.1l0,0l0,0c-50.5,0-91.5,41-91.5,91.5c0,5.2,1.2,27.8,1.2,34c-2.2,0.1-22.7-4.9-20.4,19.7c4.6,52,24.5,42,25,42c9.7,31.4,24.9,51.3,39.7,64c23.2,19.8,45.6,22.1,46.1,22.1c0.6,0,1.2,0,1.9,0l0,0l0,0c0.6,0,1.2,0,1.9,0c0.4,0,22.7-2.1,45.7-21.8c15-12.7,30.2-32.8,40-64.3c0.6,0,20.4,10.1,25-42C614.8,386.7,594.4,391.7,592.1,391.5z"/><path d="M282,604.1l0.2-0.7l0.4-0.7c2.7-6,7.2-11.8,14.1-18.6c1.5-1.4,6-5.9,9.6-8.3l0,0c0.2-0.1,0.5-0.4,0.7-0.5c0.1-0.1,0.2-0.3,0.5-0.3l0,0c2.5-1.6,5.5-3,6.5-3.5c8.1-3.9,25.5-11,37.6-16c-0.4-0.1-0.7-0.4-1.2-0.6c-0.4-0.1-0.7-0.4-1.1-0.5c-10.3-4.9-42.2-17.7-42.2-17.7l0,0c-15.9-6.9-32.5-12.8-49.3-18.8l0,0c-3,12.6-31.6,95.7-36.1,107.3l-3.6-77.4c1.2-1.9,2-3.9,3-5.9l12-23.6c-8.3,7-20.9,11.5-35,11.5c-13.7,0-26-4.2-34.5-11l11.7,23.1c1,2,1.7,4.1,3,5.9l-3.6,77.4c-4.5-11.5-33.1-94.7-36.1-107.3l0,0c-16.8,6-33.4,11.8-49.3,18.8l0,0c0,0-31.9,12.8-42.2,17.7c-0.4,0.1-0.7,0.4-1.1,0.5c-0.9,0.5-1.5,0.7-1.9,1l0,0c-5.4,3.1-9.6,7.8-12.2,13.5l0,0c0,0,0,0,0,0.1c-1,2-1.7,4.2-2.1,6.5c-4.2,13-13.7,41.9-17.8,57.7c-0.5,1.6-1,3.4-1.2,5.1l0,0l0,0c-0.2,1.5-0.4,3.1-0.4,4.7c0,17.1,13.8,30.8,30.8,30.8h29.4c42.1,0,84.2,0,126.3,0c0.5,0,1.1,0,1.6,0c0.5,0,1.1,0,1.6,0c20.1,0,40.1,0,60.2,0c5.2-18.4,13.6-44.4,18.8-59.9C279.5,610.5,281,606.3,282,604.1z"/><path d="M121.4,428.4c8.5,27.3,21.7,44.7,34.6,55.8c20.2,17.3,39.7,19.2,40.1,19.2c0.5,0,1.1,0,1.6,0c0.5,0,1.1,0,1.6,0c0.4,0,19.8-1.9,39.9-19.1c13.1-11.1,26.3-28.5,34.9-56.1c0.5,0,17.8,8.8,21.9-36.5c1.9-21.4-15.9-17.1-17.8-17.2c0-5.5,1.1-25.2,1.1-29.7c0-44-35.8-79.7-79.7-79.7l0,0h-0.1h-0.1l0,0l0,0c-0.5,0-1,0-1.5,0c-0.5,0-1,0-1.5,0l0,0l0,0h-0.1h-0.1l0,0l0,0c-44,0-79.7,35.8-79.7,79.7c0,4.5,1.1,24.3,1.1,29.7c-2,0.1-19.8-4.2-17.8,17.2C103.6,437.3,120.9,428.4,121.4,428.4z"/><path d="M989.4,612.3c-0.2-2.9-0.6-5.7-1-8.6c0,0-1.6-9.2-2-10.7c-3.7-16.3-13.8-28.2-27.5-37.5c-2.6-1.7-5.2-3.2-7.9-4.6c-3.5-1.9-57.1-19.4-58.4-19.9c0.4,1.9,0.5,3.9,0.6,6.1c7.5,5.2,29.4,24.2,19.4,59.4c0,0-15.8-18.8-31.9-21.2c-15.3,26.7-41.4,60.6-55.4,69.4c-14.1-8.8-40.1-42.6-55.4-69.4c-16.1,2.4-31.9,21.2-31.9,21.2c-10-35.4,12-54.2,19.4-59.4c0.1-2.2,0.2-4.2,0.6-6.1c-1.4,0.5-55,18.1-58.4,19.9c-2.7,1.4-5.4,2.9-7.9,4.6c-5.4,3.6-10.1,7.6-14.2,12.1c3.2,1.4,6,2.6,8.2,3.6c0.9,0.4,3.5,1.6,5.9,3.1l0,0c5.6,3.4,11.1,8.5,17.1,16c6,7.6,8,11.2,9,13.6c1.5,3.4,2.7,7,3.6,10.6c5.1,15.6,13.6,41.5,18.7,59.8c28.4,0,56.9,0,85.4,0c41.2,0,82.5,0,123.7,0c12.3,0,22.8-3.7,31.5-13c6.7-7.2,8.7-15.8,9.2-25.2c0.1-1.6,0.2-8.7,0.2-8.7S989.4,612.5,989.4,612.3z"/><path d="M728.2,444.1c1.2,4.6,2.1,9,2.1,13.1c0,1.4-0.1,2.7-0.4,4.1c-1.1,3.9-9.3,17.1-10.7,19.3c14.6,15.7,33.8,19.3,52.7,23.3c5.6,1.1,11.3,1.9,17.4,2.6c2,0.4,4,0.7,6,1.1l-9.6,28.2c0,0-0.2,41.1,39.5,66.2h0.2c39.7-25,39.5-66.2,39.5-66.2l-9.6-28.2c2-0.4,4-0.7,6-1.1c6.1-0.7,11.8-1.5,17.4-2.6c18.9-4,38.3-7.6,52.7-23.3c-1.4-2.2-9.6-15.5-10.7-19.3c-0.2-1.4-0.4-2.7-0.4-4.1c0-4.1,0.8-8.5,2.1-13.1c1.2-4.4,2.6-8.7,4-13.2c6.5-14.3,10-30.2,10-47c0-62.2-49.5-112.8-110.9-113.9l0,0h-0.1h-0.1l0,0c-61.4,1.1-110.9,51.7-110.9,113.9c0,16.7,3.6,32.6,10,47C725.6,435.4,727,439.8,728.2,444.1z"/></g></g><g></g><g></g><g></g><g></g><g></g><g></g><g></g><g></g><g></g><g></g><g></g><g></g><g></g><g></g><g></g></g>
</svg>